<svg xmlns="http://www.w3.org/2000/svg" xmlns:xlink="http://www.w3.org/1999/xlink" width="70" zoomAndPan="magnify" viewBox="0 0 419.25 297.75" height="396" preserveAspectRatio="xMidYMid meet" version="1.0"><defs><clipPath id="f994f83489"><path d="M 94.410156 63.601562 L 312 63.601562 L 312 228 L 94.410156 228 Z M 94.410156 63.601562 " clip-rule="nonzero"/></clipPath><clipPath id="5646f33f6b"><path d="M 100 231 L 324.171875 231 L 324.171875 234.328125 L 100 234.328125 Z M 100 231 " clip-rule="nonzero"/></clipPath><clipPath id="81013a881b"><path d="M 64.019531 3.253906 L 356.007812 3.253906 L 356.007812 295.238281 L 64.019531 295.238281 Z M 64.019531 3.253906 " clip-rule="nonzero"/></clipPath><clipPath id="f3e9759d87"><path d="M 73 7 L 167 7 L 167 97 L 73 97 Z M 73 7 " clip-rule="nonzero"/></clipPath><clipPath id="d446677149"><path d="M 188.726562 45.6875 L 106.566406 118.96875 L 72.582031 80.867188 L 154.742188 7.585938 Z M 188.726562 45.6875 " clip-rule="nonzero"/></clipPath><clipPath id="637d48ee9d"><path d="M 188.726562 45.6875 L 106.566406 118.96875 L 72.582031 80.867188 L 154.742188 7.585938 Z M 188.726562 45.6875 " clip-rule="nonzero"/></clipPath><clipPath id="f20749f1fa"><path d="M 188.726562 45.6875 L 106.566406 118.96875 L 72.582031 80.867188 L 154.742188 7.585938 Z M 188.726562 45.6875 " clip-rule="nonzero"/></clipPath></defs><g clip-path="url(#f994f83489)"><path fill="#ffffff" d="M 253.308594 64.109375 C 255.949219 63.816406 258.003906 63.960938 259.46875 64.550781 L 261.671875 65.433594 L 262.332031 66.097656 C 262.769531 66.539062 263.285156 67.496094 263.871094 68.972656 C 264.457031 70.445312 264.898438 72.949219 265.191406 76.484375 C 265.484375 80.019531 265.339844 82.964844 264.75 85.324219 L 263.871094 88.859375 L 262.769531 89.523438 C 262.035156 89.964844 261.15625 90.40625 260.128906 90.847656 C 259.101562 91.289062 258.296875 92.101562 257.707031 93.277344 L 256.828125 95.046875 L 256.386719 95.929688 C 256.09375 96.519531 256.09375 97.84375 256.386719 99.90625 C 256.683594 101.96875 257.046875 105.652344 257.488281 110.957031 L 258.148438 118.914062 L 264.75 119.132812 C 269.152344 119.28125 273.261719 119.058594 277.074219 118.46875 C 280.890625 117.882812 283.382812 117.292969 284.558594 116.703125 C 285.730469 116.113281 287.050781 115.890625 288.519531 116.039062 C 289.988281 116.1875 290.5 117.144531 290.058594 118.914062 C 289.621094 120.679688 289.328125 121.636719 289.179688 121.785156 L 288.960938 122.007812 L 288.078125 122.890625 C 287.492188 123.480469 285.730469 123.921875 282.796875 124.214844 C 279.863281 124.511719 276.636719 125.101562 273.113281 125.984375 C 269.59375 126.867188 265.339844 127.164062 260.351562 126.867188 C 255.359375 126.574219 252.574219 126.351562 251.988281 126.203125 C 251.398438 126.058594 250.886719 125.542969 250.445312 124.65625 L 249.785156 123.332031 L 248.464844 125.101562 C 247.585938 126.277344 246.703125 127.457031 245.824219 128.636719 C 244.945312 129.8125 243.695312 131.359375 242.082031 133.277344 C 240.46875 135.191406 238.855469 136.664062 237.242188 137.695312 C 235.628906 138.726562 234.234375 140.273438 233.058594 142.335938 C 231.886719 144.398438 231.300781 146.019531 231.300781 147.199219 L 231.300781 148.964844 L 232.621094 150.734375 C 233.5 151.910156 234.746094 153.3125 236.359375 154.933594 C 237.976562 156.550781 239.441406 157.730469 240.761719 158.46875 C 242.082031 159.203125 243.109375 159.792969 243.84375 160.234375 C 244.578125 160.675781 245.53125 161.339844 246.703125 162.222656 C 247.878906 163.109375 250.445312 165.6875 254.40625 169.957031 C 258.367188 174.230469 260.644531 177.105469 261.230469 178.578125 C 261.816406 180.050781 262.550781 182.261719 263.429688 185.207031 C 264.3125 188.152344 265.484375 192.128906 266.953125 197.140625 C 268.417969 202.148438 269.226562 205.09375 269.371094 205.976562 C 269.519531 206.863281 273.261719 207.523438 280.597656 207.96875 C 287.933594 208.410156 291.527344 208.703125 291.378906 208.851562 L 291.160156 209.070312 L 290.941406 209.292969 C 290.792969 209.441406 289.691406 209.660156 287.640625 209.957031 C 285.585938 210.25 282.578125 210.472656 278.617188 210.617188 C 274.65625 210.765625 272.527344 211.28125 272.234375 212.164062 L 271.792969 213.492188 L 273.335938 215.921875 C 274.359375 217.542969 280.890625 218.648438 292.921875 219.238281 C 304.953125 219.828125 311.113281 220.269531 311.40625 220.5625 L 311.847656 221.003906 L 295.121094 221.667969 C 283.972656 222.109375 278.542969 223.214844 278.835938 224.984375 C 279.128906 226.75 278.542969 227.5625 277.074219 227.414062 L 274.875 227.191406 L 274.433594 226.75 C 274.140625 226.457031 273.699219 226.234375 273.113281 226.085938 C 272.527344 225.941406 272.085938 225.5 271.792969 224.761719 C 271.5 224.023438 270.472656 223.363281 268.710938 222.773438 C 266.953125 222.183594 265.042969 221.742188 262.992188 221.445312 C 260.9375 221.152344 257.121094 221.003906 251.546875 221.003906 C 245.972656 221.003906 242.15625 221.003906 240.101562 221.003906 C 238.046875 221.003906 234.234375 221.003906 228.660156 221.003906 C 223.082031 221.003906 216.921875 221.003906 210.171875 221.003906 C 203.421875 221.003906 199.902344 221.003906 199.609375 221.003906 C 199.316406 221.003906 197.40625 221.003906 193.886719 221.003906 C 190.367188 221.003906 186.257812 221.003906 181.5625 221.003906 C 176.867188 221.003906 170.558594 221.003906 162.636719 221.003906 L 150.75 221.003906 L 148.992188 220.785156 C 147.816406 220.636719 147.230469 220.269531 147.230469 219.679688 C 147.230469 219.089844 150.898438 218.867188 158.234375 219.015625 C 165.570312 219.164062 170.703125 219.089844 173.640625 218.796875 C 176.574219 218.5 192.273438 218.207031 220.734375 217.910156 C 249.199219 217.617188 263.652344 217.25 264.089844 216.804688 C 264.53125 216.363281 264.605469 215.40625 264.3125 213.933594 C 264.019531 212.460938 263.503906 211.503906 262.769531 211.0625 C 262.035156 210.617188 260.496094 210.25 258.148438 209.957031 C 255.800781 209.660156 248.320312 209.660156 235.699219 209.957031 C 223.082031 210.25 216.628906 210.398438 216.335938 210.398438 C 216.039062 210.398438 209.585938 210.324219 196.96875 210.175781 C 184.351562 210.03125 177.96875 210.25 177.820312 210.839844 L 177.601562 211.722656 L 177.378906 210.839844 C 177.234375 210.25 175.546875 209.882812 172.320312 209.734375 C 169.089844 209.585938 166.449219 209.660156 164.394531 209.957031 C 162.34375 210.25 161.167969 210.398438 160.875 210.398438 C 160.582031 210.398438 157.941406 210.25 152.953125 209.957031 C 147.964844 209.660156 144.003906 209.515625 141.066406 209.515625 C 138.132812 209.515625 133.070312 209.441406 125.882812 209.292969 L 115.097656 209.070312 L 114.878906 208.851562 C 114.730469 208.703125 114.953125 208.484375 115.539062 208.1875 C 116.125 207.894531 120.820312 207.746094 129.625 207.746094 C 138.425781 207.746094 142.976562 207.746094 143.269531 207.746094 C 143.5625 207.746094 143.855469 207.746094 144.148438 207.746094 C 144.441406 207.746094 146.9375 207.746094 151.632812 207.746094 C 156.328125 207.746094 158.820312 207.746094 159.113281 207.746094 C 159.40625 207.746094 161.753906 207.671875 166.15625 207.523438 C 170.558594 207.378906 172.90625 207.304688 173.199219 207.304688 C 173.492188 207.304688 174.371094 207.230469 175.839844 207.082031 C 177.308594 206.9375 179.214844 206.863281 181.5625 206.863281 C 183.910156 206.863281 187.722656 207.007812 193.007812 207.304688 C 198.289062 207.597656 201.808594 207.671875 203.570312 207.523438 L 206.210938 207.304688 L 205.550781 205.09375 C 205.109375 203.621094 204.597656 201.265625 204.011719 198.023438 C 203.421875 194.78125 202.984375 193.015625 202.691406 192.71875 C 202.394531 192.425781 201.882812 191.097656 201.148438 188.742188 L 200.046875 185.207031 L 198.726562 185.871094 C 197.847656 186.3125 196.96875 186.828125 196.085938 187.417969 C 195.207031 188.003906 191.980469 188.742188 186.402344 189.625 C 180.828125 190.511719 177.894531 190.953125 177.601562 190.953125 C 177.308594 190.953125 176.792969 190.730469 176.058594 190.289062 C 175.328125 189.847656 174.59375 190.140625 173.859375 191.171875 C 173.125 192.203125 172.464844 192.792969 171.878906 192.941406 L 171 193.160156 L 171 192.277344 C 171 191.6875 170.703125 191.46875 170.117188 191.613281 C 169.53125 191.761719 167.035156 192.128906 162.636719 192.71875 C 158.234375 193.308594 155.300781 193.898438 153.832031 194.488281 C 152.367188 195.078125 149.871094 196.402344 146.351562 198.464844 C 142.828125 200.527344 140.773438 201.632812 140.1875 201.78125 L 139.308594 202 L 139.96875 199.347656 C 140.40625 197.582031 141.214844 195.960938 142.386719 194.488281 C 143.5625 193.015625 144.734375 191.394531 145.910156 189.625 C 147.082031 187.859375 147.742188 186.902344 147.890625 186.753906 L 148.109375 186.53125 L 156.472656 186.089844 C 162.046875 185.796875 166.082031 185.132812 168.578125 184.101562 C 171.070312 183.070312 172.539062 182.628906 172.980469 182.777344 C 173.417969 182.921875 173.785156 182.847656 174.078125 182.554688 C 174.371094 182.261719 176.867188 181.816406 181.5625 181.230469 C 186.257812 180.640625 189.117188 179.976562 190.144531 179.238281 C 191.171875 178.503906 192.050781 177.25 192.785156 175.484375 L 193.886719 172.832031 L 193.007812 172.832031 C 192.417969 172.832031 191.757812 171.949219 191.027344 170.179688 C 190.292969 168.410156 189.410156 167.160156 188.382812 166.421875 C 187.359375 165.6875 185.742188 164.800781 183.542969 163.769531 C 181.34375 162.738281 179.875 162.003906 179.140625 161.5625 C 178.40625 161.121094 177.160156 160.308594 175.398438 159.128906 C 173.640625 157.953125 171.878906 157.066406 170.117188 156.480469 L 167.476562 155.59375 L 166.15625 156.035156 C 165.277344 156.332031 162.78125 157.65625 158.675781 160.015625 C 154.566406 162.371094 151.042969 164.140625 148.109375 165.316406 C 145.175781 166.496094 140.1875 167.378906 133.144531 167.96875 C 126.101562 168.558594 120.675781 169.296875 116.859375 170.179688 C 113.042969 171.0625 109.597656 172.167969 106.515625 173.496094 C 103.433594 174.820312 101.160156 176.074219 99.695312 177.25 C 98.226562 178.429688 97.273438 179.386719 96.832031 180.125 C 96.390625 180.859375 95.878906 181.300781 95.292969 181.449219 L 94.410156 181.671875 L 95.070312 179.019531 C 95.511719 177.25 96.027344 175.925781 96.613281 175.042969 C 97.199219 174.15625 97.859375 172.757812 98.59375 170.84375 L 99.695312 167.96875 L 101.015625 167.527344 C 101.894531 167.234375 103.949219 166.9375 107.175781 166.644531 C 110.402344 166.347656 112.898438 165.761719 114.660156 164.875 C 116.417969 163.992188 118.035156 163.253906 119.5 162.667969 C 120.96875 162.078125 123.023438 161.636719 125.664062 161.339844 C 128.304688 161.046875 131.238281 160.75 134.464844 160.457031 L 139.308594 160.015625 L 141.949219 158.246094 C 143.707031 157.066406 145.691406 155.375 147.890625 153.164062 C 150.089844 150.953125 151.925781 148.671875 153.390625 146.3125 C 154.859375 143.957031 156.179688 141.894531 157.355469 140.125 C 158.527344 138.359375 159.921875 136.664062 161.535156 135.042969 C 163.148438 133.421875 164.25 132.539062 164.835938 132.390625 C 165.421875 132.246094 165.9375 131.730469 166.375 130.84375 C 166.816406 129.960938 167.402344 129.152344 168.136719 128.414062 L 169.238281 127.308594 L 168.359375 125.984375 C 167.769531 125.101562 167.183594 124.585938 166.597656 124.4375 C 166.011719 124.289062 165.714844 123.921875 165.714844 123.332031 C 165.714844 122.742188 165.351562 122.300781 164.617188 122.007812 C 163.882812 121.710938 162.636719 120.089844 160.875 117.144531 C 159.113281 114.199219 158.015625 112.210938 157.574219 111.179688 L 156.914062 109.632812 L 157.574219 108.527344 C 158.015625 107.789062 158.675781 106.832031 159.554688 105.652344 C 160.433594 104.476562 161.976562 102.929688 164.175781 101.011719 C 166.375 99.097656 168.796875 97.402344 171.4375 95.929688 C 174.078125 94.457031 176.28125 93.132812 178.039062 91.953125 C 179.800781 90.773438 181.707031 90.039062 183.761719 89.742188 C 185.816406 89.449219 187.652344 89.226562 189.265625 89.078125 L 191.6875 88.859375 L 192.125 87.976562 C 192.417969 87.386719 192.859375 84.441406 193.445312 79.136719 C 194.03125 73.832031 194.398438 70.886719 194.546875 70.296875 L 194.765625 69.414062 L 197.40625 68.308594 C 199.167969 67.570312 201.515625 67.351562 204.449219 67.644531 L 208.851562 68.085938 L 209.953125 69.632812 C 210.6875 70.664062 211.417969 72.582031 212.152344 75.378906 C 212.886719 78.179688 213.179688 79.652344 213.03125 79.800781 C 212.886719 79.945312 212.519531 81.199219 211.933594 83.554688 C 211.347656 85.914062 210.6875 87.460938 209.953125 88.195312 C 209.21875 88.933594 207.679688 89.667969 205.332031 90.40625 L 201.808594 91.511719 L 201.589844 93.277344 C 201.441406 94.457031 201.664062 95.488281 202.25 96.371094 C 202.835938 97.257812 203.421875 98.730469 204.011719 100.792969 C 204.597656 102.855469 204.964844 104.769531 205.109375 106.539062 L 205.332031 109.1875 L 207.53125 108.527344 C 209 108.085938 212.300781 106.609375 217.433594 104.105469 C 222.570312 101.601562 225.503906 100.128906 226.238281 99.6875 C 226.972656 99.246094 228.21875 98.730469 229.980469 98.140625 C 231.738281 97.550781 233.792969 96.8125 236.140625 95.929688 C 238.488281 95.046875 240.46875 94.089844 242.082031 93.058594 C 243.695312 92.027344 244.652344 91.214844 244.945312 90.625 L 245.382812 89.742188 L 244.945312 86.648438 C 244.652344 84.585938 244.0625 82.378906 243.183594 80.019531 C 242.304688 77.664062 241.863281 76.042969 241.863281 75.160156 L 241.863281 73.832031 L 242.742188 71.621094 C 243.332031 70.148438 244.578125 68.601562 246.484375 66.980469 C 248.390625 65.363281 250.667969 64.402344 253.308594 64.109375 Z M 170.117188 107.421875 C 172.464844 106.539062 173.710938 106.316406 173.859375 106.757812 C 174.007812 107.199219 173.710938 109.335938 172.980469 113.167969 C 172.246094 116.996094 171.585938 118.914062 171 118.914062 C 170.410156 118.914062 169.824219 118.25 169.238281 116.921875 C 168.652344 115.597656 168.136719 114.566406 167.699219 113.828125 L 167.035156 112.726562 L 166.597656 112.28125 C 166.304688 111.988281 166.230469 111.324219 166.375 110.292969 C 166.523438 109.261719 167.769531 108.304688 170.117188 107.421875 Z M 197.847656 115.597656 L 199.167969 115.375 L 198.507812 117.585938 C 198.066406 119.058594 197.40625 120.53125 196.527344 122.007812 C 195.648438 123.480469 194.914062 125.542969 194.328125 128.195312 C 193.738281 130.84375 193.226562 135.855469 192.785156 143.21875 C 192.347656 150.585938 192.417969 154.34375 193.007812 154.488281 L 193.886719 154.710938 L 195.867188 154.488281 C 197.1875 154.34375 197.996094 153.972656 198.289062 153.386719 C 198.582031 152.796875 198.875 150.292969 199.167969 145.871094 C 199.460938 141.453125 200.34375 137.621094 201.808594 134.382812 C 203.277344 131.140625 204.304688 129.078125 204.890625 128.195312 L 205.769531 126.867188 L 206.871094 127.53125 C 207.605469 127.972656 209.511719 128.414062 212.59375 128.855469 L 217.214844 129.519531 L 216.773438 131.730469 C 216.480469 133.203125 215.308594 135.117188 213.253906 137.476562 C 211.199219 139.832031 209.730469 141.601562 208.851562 142.777344 C 207.972656 143.957031 207.382812 144.988281 207.089844 145.871094 C 206.796875 146.753906 206.359375 148.523438 205.769531 151.175781 C 205.183594 153.828125 204.15625 156.480469 202.691406 159.128906 C 201.222656 161.78125 200.121094 163.625 199.386719 164.65625 C 198.65625 165.6875 197.996094 166.277344 197.40625 166.421875 L 196.527344 166.644531 L 195.867188 164.875 C 195.425781 163.699219 194.621094 162.371094 193.445312 160.898438 C 192.273438 159.425781 191.613281 158.394531 191.464844 157.804688 C 191.320312 157.214844 190.804688 156.699219 189.925781 156.257812 C 189.042969 155.816406 188.019531 154.859375 186.84375 153.386719 C 185.671875 151.910156 184.128906 150.070312 182.222656 147.859375 L 179.363281 144.546875 L 179.800781 141.453125 C 180.09375 139.390625 180.976562 137.179688 182.441406 134.824219 C 183.910156 132.464844 185.082031 130.992188 185.964844 130.402344 C 186.84375 129.8125 187.722656 128.929688 188.605469 127.75 C 189.484375 126.574219 190.511719 125.246094 191.6875 123.773438 C 192.859375 122.300781 193.886719 120.679688 194.765625 118.914062 C 195.648438 117.144531 196.160156 116.1875 196.308594 116.039062 C 196.453125 115.890625 196.96875 115.746094 197.847656 115.597656 Z M 222.496094 164.433594 C 223.375 164.433594 224.402344 164.875 225.578125 165.761719 C 226.75 166.644531 228.511719 167.824219 230.859375 169.296875 C 233.207031 170.769531 236.726562 172.683594 241.421875 175.042969 C 246.117188 177.398438 248.980469 179.09375 250.007812 180.125 L 251.546875 181.671875 L 252.425781 183.4375 C 253.015625 184.617188 253.601562 186.972656 254.1875 190.511719 C 254.773438 194.046875 255.800781 196.992188 257.269531 199.347656 C 258.734375 201.707031 259.617188 203.03125 259.910156 203.328125 C 260.203125 203.621094 260.351562 204.210938 260.351562 205.09375 L 260.351562 206.421875 L 260.128906 206.640625 C 259.984375 206.789062 259.324219 207.007812 258.148438 207.304688 C 256.976562 207.597656 249.933594 207.597656 237.023438 207.304688 C 224.109375 207.007812 217.363281 206.714844 216.773438 206.421875 L 215.894531 205.976562 L 213.914062 203.546875 C 212.59375 201.925781 211.347656 199.789062 210.171875 197.140625 C 209 194.488281 207.972656 190.804688 207.089844 186.089844 L 205.769531 179.019531 L 209.070312 175.261719 C 211.273438 172.757812 213.105469 171.285156 214.574219 170.84375 C 216.039062 170.402344 216.996094 169.738281 217.433594 168.855469 C 217.875 167.96875 218.609375 167.011719 219.636719 165.980469 L 221.175781 164.433594 Z M 221.835938 112.945312 C 223.449219 112.210938 224.402344 111.988281 224.695312 112.28125 L 225.136719 112.726562 L 225.136719 113.167969 C 225.136719 113.460938 224.332031 115.523438 222.714844 119.355469 C 221.101562 123.183594 219.414062 124.878906 217.65625 124.4375 C 215.894531 123.996094 214.867188 123.625 214.574219 123.332031 L 214.132812 122.890625 L 211.273438 121.34375 C 209.363281 120.3125 208.484375 119.429688 208.632812 118.691406 C 208.777344 117.953125 210.613281 116.996094 214.132812 115.820312 C 217.65625 114.640625 220.222656 113.683594 221.835938 112.945312 Z M 221.835938 112.945312 " fill-opacity="1" fill-rule="evenodd"/></g><g clip-path="url(#5646f33f6b)"><path fill="#ffffff" d="M 113.117188 231.613281 C 121.480469 231.316406 125.734375 231.242188 125.882812 231.390625 C 126.03125 231.539062 139.308594 231.613281 165.714844 231.613281 C 192.125 231.613281 205.476562 231.613281 205.769531 231.613281 C 206.0625 231.613281 210.171875 231.613281 218.09375 231.613281 C 226.019531 231.613281 230.125 231.613281 230.417969 231.613281 C 230.710938 231.613281 231.59375 231.613281 233.058594 231.613281 C 234.527344 231.613281 236.289062 231.613281 238.34375 231.613281 C 240.394531 231.613281 241.570312 231.613281 241.863281 231.613281 C 242.15625 231.613281 242.449219 231.613281 242.742188 231.613281 C 243.035156 231.613281 245.382812 231.613281 249.785156 231.613281 C 254.1875 231.613281 256.535156 231.613281 256.828125 231.613281 C 257.121094 231.613281 261.523438 231.613281 270.03125 231.613281 C 278.542969 231.613281 282.945312 231.613281 283.238281 231.613281 C 283.53125 231.613281 284.117188 231.613281 285 231.613281 C 285.878906 231.613281 289.105469 231.613281 294.683594 231.613281 C 300.257812 231.613281 305.980469 231.613281 311.847656 231.613281 C 317.714844 231.613281 321.238281 231.539062 322.410156 231.390625 C 323.585938 231.242188 324.171875 231.613281 324.171875 232.496094 C 324.171875 233.378906 323.660156 233.675781 322.632812 233.378906 L 321.089844 232.9375 L 320.871094 233.160156 C 320.722656 233.304688 320.0625 233.527344 318.890625 233.820312 C 317.714844 234.117188 316.6875 234.265625 315.808594 234.265625 C 314.929688 234.265625 311.699219 234.265625 306.125 234.265625 C 300.550781 234.265625 296.003906 234.265625 292.480469 234.265625 C 288.960938 234.265625 282.796875 234.265625 273.996094 234.265625 C 265.191406 234.265625 260.644531 234.265625 260.351562 234.265625 C 260.054688 234.265625 259.761719 234.265625 259.46875 234.265625 C 259.175781 234.265625 256.753906 234.191406 252.207031 234.042969 C 247.660156 233.894531 245.164062 233.894531 244.722656 234.042969 C 244.285156 234.191406 243.332031 234.265625 241.863281 234.265625 C 240.394531 234.265625 239.515625 234.265625 239.222656 234.265625 C 238.929688 234.265625 238.636719 234.265625 238.34375 234.265625 C 238.046875 234.265625 237.753906 234.265625 237.460938 234.265625 C 237.167969 234.265625 236.875 234.265625 236.582031 234.265625 C 236.289062 234.265625 235.996094 234.265625 235.699219 234.265625 C 235.40625 234.265625 235.113281 234.265625 234.820312 234.265625 C 234.527344 234.265625 234.234375 234.265625 233.941406 234.265625 C 233.648438 234.265625 232.914062 234.265625 231.738281 234.265625 C 230.566406 234.265625 222.9375 234.265625 208.851562 234.265625 C 194.765625 234.265625 173.199219 234.191406 144.148438 234.042969 L 100.574219 233.820312 L 100.574219 232.9375 C 100.574219 232.347656 104.753906 231.90625 113.117188 231.613281 Z M 113.117188 231.613281 " fill-opacity="1" fill-rule="evenodd"/></g><g clip-path="url(#81013a881b)"><path fill="#ffffff" d="M 210.015625 295.238281 C 129.539062 295.238281 64.019531 229.722656 64.019531 149.246094 C 64.019531 68.769531 129.539062 3.253906 210.015625 3.253906 C 290.488281 3.253906 356.007812 68.769531 356.007812 149.246094 C 356.007812 229.722656 290.488281 295.238281 210.015625 295.238281 Z M 210.015625 5.410156 C 130.6875 5.410156 66.175781 69.921875 66.175781 149.246094 C 66.175781 228.570312 130.6875 293.082031 210.015625 293.082031 C 289.339844 293.082031 353.851562 228.570312 353.851562 149.246094 C 353.851562 69.921875 289.339844 5.410156 210.015625 5.410156 Z M 210.015625 5.410156 " fill-opacity="1" fill-rule="nonzero"/></g><g clip-path="url(#f3e9759d87)"><g clip-path="url(#d446677149)"><g clip-path="url(#637d48ee9d)"><g clip-path="url(#f20749f1fa)"><path fill="#ffffff" d="M 131.410156 96.539062 C 131.089844 96.34375 131.058594 96.023438 130.960938 95.746094 C 129.9375 92.828125 129.222656 89.820312 128.375 86.851562 C 126.949219 81.859375 125.609375 76.851562 123.816406 71.960938 C 122.753906 69.0625 121.824219 66.117188 120.785156 63.207031 C 120.703125 62.976562 120.464844 62.589844 120.75 62.503906 C 121.101562 62.398438 121.097656 62.863281 121.183594 63.105469 C 122.476562 66.726562 123.789062 70.347656 125.042969 73.984375 C 126.3125 77.679688 127.253906 81.46875 128.332031 85.21875 C 129.363281 88.808594 130.363281 92.402344 131.375 95.996094 C 131.421875 96.152344 131.519531 96.308594 131.410156 96.539062 Z M 162.289062 68.574219 C 161.453125 68.050781 160.621094 67.523438 159.730469 67.089844 C 156.597656 65.570312 153.382812 64.183594 150.378906 62.421875 C 144.335938 58.878906 137.988281 55.941406 131.875 52.550781 C 131.6875 52.445312 131.40625 52.152344 131.246094 52.460938 C 131.105469 52.734375 131.492188 52.777344 131.660156 52.886719 C 133.257812 53.875 134.9375 54.714844 136.609375 55.566406 C 145.117188 59.898438 153.507812 64.457031 162 68.824219 C 162.171875 68.914062 162.347656 69.070312 162.605469 68.929688 C 162.550781 68.730469 162.417969 68.652344 162.289062 68.574219 Z M 104.554688 63.019531 C 103.371094 65.757812 102.199219 68.503906 101.03125 71.25 C 99.234375 75.460938 97.535156 79.71875 95.691406 83.910156 C 94.269531 87.136719 92.71875 90.308594 91.578125 93.660156 C 91.492188 93.90625 91.308594 94.140625 91.46875 94.582031 C 96.277344 83.769531 100.648438 72.914062 105.226562 62.140625 C 104.832031 62.324219 104.699219 62.6875 104.554688 63.019531 Z M 97.707031 58.753906 C 95.011719 61.308594 92.085938 63.601562 89.40625 66.175781 C 87.484375 68.019531 85.378906 69.65625 83.359375 71.394531 C 80.84375 73.558594 78.5 75.910156 76.109375 78.210938 C 75.140625 79.148438 74.160156 80.078125 73.183594 81.011719 C 73.078125 81.113281 72.917969 81.253906 73.046875 81.386719 C 73.199219 81.550781 73.308594 81.332031 73.402344 81.242188 C 73.960938 80.714844 74.503906 80.171875 75.058594 79.636719 C 79.738281 75.117188 84.742188 70.953125 89.453125 66.464844 C 92.375 63.683594 95.644531 61.296875 98.527344 58.472656 C 98.691406 58.308594 98.925781 58.195312 98.925781 57.847656 C 98.429688 58.074219 98.0625 58.414062 97.707031 58.753906 Z M 129.628906 30.90625 C 130.21875 30.414062 130.796875 29.90625 131.382812 29.410156 C 133.816406 27.347656 135.941406 24.957031 138.347656 22.867188 C 140.570312 20.941406 142.84375 19.074219 145.066406 17.148438 C 148.367188 14.285156 151.5625 11.3125 154.78125 8.359375 C 154.910156 8.242188 155.164062 8.105469 155.003906 7.914062 C 154.816406 7.683594 154.679688 7.972656 154.5625 8.074219 C 152.988281 9.460938 151.402344 10.839844 149.851562 12.253906 C 144.261719 17.335938 138.550781 22.277344 133.03125 27.433594 C 131.894531 28.496094 130.710938 29.503906 129.558594 30.550781 C 129.386719 30.703125 129.140625 30.820312 129.144531 31.117188 C 129.375 31.1875 129.496094 31.019531 129.628906 30.90625 Z M 165.132812 28.484375 C 161.167969 29.648438 157.210938 30.824219 153.152344 31.660156 C 147.605469 32.804688 142.234375 34.625 136.71875 35.898438 C 135.277344 36.234375 133.871094 36.722656 132.449219 37.148438 C 132.332031 37.183594 132.085938 37.160156 132.171875 37.394531 C 132.226562 37.550781 132.402344 37.464844 132.523438 37.4375 C 132.925781 37.339844 133.328125 37.25 133.726562 37.140625 C 137.101562 36.226562 140.460938 35.265625 143.847656 34.398438 C 151.132812 32.535156 158.410156 30.65625 165.667969 28.699219 C 165.835938 28.652344 166.054688 28.667969 166.160156 28.375 C 165.769531 28.265625 165.449219 28.390625 165.132812 28.484375 Z M 142.710938 77.011719 C 141.078125 75.132812 139.453125 73.242188 137.8125 71.371094 C 134.175781 67.226562 130.5625 63.0625 126.820312 59.011719 C 126.65625 58.832031 126.457031 58.46875 126.203125 58.710938 C 125.972656 58.929688 126.335938 59.128906 126.476562 59.300781 C 129.066406 62.417969 131.988281 65.230469 134.589844 68.339844 C 137.042969 71.269531 139.652344 74.066406 142.199219 76.917969 C 142.355469 77.09375 142.480469 77.332031 142.800781 77.351562 C 142.855469 77.1875 142.785156 77.101562 142.710938 77.011719 Z M 111.28125 88.582031 C 111.332031 88.445312 111.355469 88.292969 111.367188 88.144531 C 111.523438 86.097656 111.652344 84.042969 111.828125 81.996094 C 112.03125 79.609375 112.308594 77.230469 112.492188 74.84375 C 112.75 71.457031 112.898438 68.066406 112.988281 64.671875 C 112.996094 64.445312 112.992188 64.21875 112.976562 63.992188 C 112.972656 63.878906 112.929688 63.75 112.796875 63.738281 C 112.621094 63.726562 112.585938 63.867188 112.578125 64.003906 C 112.558594 64.378906 112.546875 64.757812 112.527344 65.132812 C 112.421875 67.132812 112.21875 69.125 112.222656 71.125 C 112.230469 73.984375 112.050781 76.820312 111.683594 79.644531 C 111.320312 82.394531 111.203125 85.167969 111.015625 87.933594 C 111 88.15625 111.019531 88.382812 111.023438 88.578125 C 111.144531 88.699219 111.246094 88.671875 111.28125 88.582031 Z M 157.863281 47.738281 C 157.585938 47.582031 157.277344 47.597656 156.980469 47.578125 C 150.554688 47.210938 144.152344 46.5 137.726562 46.128906 C 136.292969 46.042969 134.867188 45.886719 133.441406 45.726562 C 133.28125 45.710938 133.054688 45.660156 133.03125 45.898438 C 133.007812 46.136719 133.230469 46.132812 133.394531 46.152344 C 133.996094 46.21875 134.597656 46.289062 135.199219 46.34375 C 139.113281 46.679688 143.035156 46.835938 146.949219 47.132812 C 150.035156 47.363281 153.113281 47.773438 156.207031 47.867188 C 156.757812 47.882812 157.308594 47.894531 157.863281 47.90625 C 157.863281 47.851562 157.863281 47.792969 157.863281 47.738281 Z M 132.449219 49.519531 C 132.777344 49.816406 133.210938 49.894531 133.617188 50.011719 C 136.933594 50.9375 140.242188 51.902344 143.589844 52.714844 C 144.289062 52.886719 144.984375 53.066406 145.683594 53.230469 C 145.804688 53.261719 145.972656 53.296875 146.007812 53.117188 C 146.035156 52.96875 145.878906 52.949219 145.78125 52.910156 C 145.691406 52.875 145.597656 52.851562 145.507812 52.828125 C 141.953125 51.914062 138.367188 51.125 134.882812 49.941406 C 134.109375 49.675781 133.292969 49.546875 132.496094 49.355469 C 132.480469 49.410156 132.464844 49.464844 132.449219 49.519531 Z M 128.902344 56.269531 C 129.300781 56.714844 129.839844 56.976562 130.304688 57.332031 C 133.378906 59.707031 136.449219 62.089844 139.527344 64.464844 C 139.738281 64.625 140.058594 64.996094 140.222656 64.773438 C 140.421875 64.496094 139.988281 64.292969 139.765625 64.125 C 136.910156 61.996094 133.96875 59.980469 131.285156 57.621094 C 130.546875 56.972656 129.710938 56.457031 128.855469 55.929688 C 128.761719 56.140625 128.84375 56.207031 128.902344 56.269531 Z M 133.78125 42.164062 C 134.558594 42.1875 135.324219 42.074219 136.089844 41.984375 C 138.632812 41.683594 141.175781 41.382812 143.734375 41.234375 C 144.542969 41.1875 145.34375 41.078125 146.148438 40.984375 C 146.304688 40.964844 146.535156 40.925781 146.480469 40.699219 C 146.4375 40.515625 146.230469 40.570312 146.085938 40.582031 C 145.617188 40.625 145.148438 40.675781 144.683594 40.738281 C 143.878906 40.839844 143.082031 40.976562 142.277344 41.058594 C 139.46875 41.351562 136.636719 41.414062 133.839844 41.800781 C 133.613281 41.832031 133.332031 41.742188 133.1875 42.039062 C 133.371094 42.191406 133.582031 42.160156 133.78125 42.164062 Z M 131.199219 34.234375 C 131.285156 34.210938 131.386719 34.207031 131.460938 34.164062 C 132.96875 33.222656 134.621094 32.535156 136.148438 31.628906 C 137.980469 30.539062 139.976562 29.753906 141.828125 28.695312 C 142.15625 28.507812 142.574219 28.390625 142.757812 27.957031 C 142.425781 27.875 142.210938 28.042969 141.984375 28.160156 C 140.457031 28.945312 138.949219 29.773438 137.445312 30.609375 C 135.910156 31.464844 134.304688 32.183594 132.746094 32.996094 C 132.164062 33.296875 131.578125 33.625 131.125 34.109375 C 131.148438 34.152344 131.171875 34.191406 131.199219 34.234375 Z M 108.34375 63.675781 C 108.207031 64.300781 108.089844 64.929688 107.953125 65.554688 C 107.304688 68.546875 106.648438 71.539062 106.003906 74.535156 C 105.925781 74.882812 105.902344 75.242188 105.867188 75.597656 C 105.859375 75.71875 105.8125 75.894531 106.003906 75.914062 C 106.144531 75.925781 106.160156 75.769531 106.183594 75.667969 C 106.308594 75.152344 106.414062 74.636719 106.535156 74.125 C 106.949219 72.386719 107.042969 70.585938 107.539062 68.863281 C 108 67.253906 108.363281 65.621094 108.648438 63.96875 C 108.691406 63.714844 108.785156 63.457031 108.625 63.175781 C 108.363281 63.289062 108.382812 63.503906 108.34375 63.675781 Z M 116.722656 65.113281 C 117.207031 67.753906 117.675781 70.394531 117.933594 73.066406 C 118.03125 74.085938 118.207031 75.089844 118.425781 76.085938 C 118.46875 76.265625 118.503906 76.550781 118.714844 76.515625 C 118.953125 76.476562 118.847656 76.203125 118.816406 76.03125 C 118.089844 72.316406 117.675781 68.558594 117.050781 64.832031 C 116.972656 64.378906 116.953125 63.910156 116.691406 63.496094 C 116.515625 64.046875 116.625 64.582031 116.722656 65.113281 Z M 123.5 60.953125 C 123.59375 61.136719 123.679688 61.320312 123.78125 61.496094 C 125.765625 64.8125 127.8125 68.09375 129.667969 71.484375 C 129.859375 71.835938 130.082031 72.167969 130.300781 72.5 C 130.382812 72.625 130.507812 72.777344 130.664062 72.667969 C 130.824219 72.554688 130.695312 72.394531 130.640625 72.261719 C 130.609375 72.191406 130.554688 72.132812 130.515625 72.070312 C 128.574219 69.125 126.859375 66.042969 125.066406 63.011719 C 124.632812 62.273438 124.1875 61.527344 123.625 60.871094 C 123.585938 60.898438 123.542969 60.925781 123.5 60.953125 Z M 94.324219 70.566406 C 96.789062 67.203125 99.269531 63.847656 101.519531 60.324219 C 100.808594 60.785156 94.269531 70.117188 94.324219 70.566406 Z M 143.992188 27.214844 C 143.949219 27.246094 143.917969 27.355469 143.9375 27.410156 C 143.976562 27.527344 144.089844 27.511719 144.171875 27.46875 C 144.777344 27.175781 145.425781 26.945312 145.894531 26.414062 C 145.199219 26.542969 144.566406 26.8125 143.992188 27.214844 Z M 149.191406 53.957031 C 149.234375 53.9375 149.296875 53.867188 149.289062 53.851562 C 149.261719 53.789062 149.214844 53.710938 149.160156 53.6875 C 148.644531 53.496094 148.109375 53.371094 147.566406 53.296875 C 147.464844 53.28125 147.371094 53.3125 147.335938 53.410156 C 147.320312 53.449219 147.355469 53.511719 147.363281 53.535156 C 147.511719 53.703125 149.023438 54.042969 149.191406 53.957031 Z M 105.859375 77.574219 C 105.878906 77.460938 105.839844 77.332031 105.714844 77.300781 C 105.574219 77.261719 105.527344 77.394531 105.496094 77.5 C 105.339844 78.035156 105.257812 78.582031 105.367188 79.15625 C 105.65625 78.660156 105.769531 78.121094 105.859375 77.574219 Z M 141.585938 65.679688 C 141.496094 65.617188 141.382812 65.542969 141.285156 65.65625 C 141.214844 65.738281 141.242188 65.839844 141.328125 65.898438 C 141.835938 66.261719 142.28125 66.726562 142.945312 66.835938 C 142.574219 66.34375 142.074219 66.019531 141.585938 65.679688 Z M 132.179688 75.445312 C 132.210938 75.492188 132.320312 75.527344 132.375 75.511719 C 132.492188 75.476562 132.46875 75.359375 132.425781 75.28125 C 132.15625 74.777344 131.941406 74.234375 131.398438 73.921875 C 131.457031 74.539062 131.863281 74.96875 132.179688 75.445312 Z M 119.222656 79.988281 C 119.167969 79.289062 119.273438 78.566406 118.875 77.914062 C 118.871094 78.625 118.847656 79.339844 119.222656 79.988281 Z M 150.34375 40.167969 C 149.6875 40.011719 149.066406 40.144531 148.449219 40.386719 C 149.101562 40.507812 149.742188 40.503906 150.34375 40.167969 Z M 93.449219 71.699219 C 93.0625 72.183594 92.550781 72.589844 92.503906 73.28125 C 92.898438 72.800781 93.425781 72.398438 93.449219 71.699219 Z M 93.449219 71.699219 " fill-opacity="1" fill-rule="nonzero"/><path fill="#ffffff" d="M 131.410156 96.539062 C 131.089844 96.34375 131.058594 96.023438 130.960938 95.746094 C 129.9375 92.828125 129.222656 89.820312 128.375 86.851562 C 126.949219 81.859375 125.609375 76.851562 123.816406 71.960938 C 122.753906 69.0625 121.824219 66.117188 120.785156 63.207031 C 120.703125 62.976562 120.464844 62.589844 120.75 62.503906 C 121.101562 62.398438 121.097656 62.863281 121.183594 63.105469 C 122.476562 66.726562 123.789062 70.347656 125.042969 73.984375 C 126.3125 77.679688 127.253906 81.46875 128.332031 85.21875 C 129.363281 88.808594 130.363281 92.402344 131.375 95.996094 C 131.421875 96.152344 131.519531 96.308594 131.410156 96.539062 Z M 162.289062 68.574219 C 161.453125 68.050781 160.621094 67.523438 159.730469 67.089844 C 156.597656 65.570312 153.382812 64.183594 150.378906 62.421875 C 144.335938 58.878906 137.988281 55.941406 131.875 52.550781 C 131.6875 52.445312 131.40625 52.152344 131.246094 52.460938 C 131.105469 52.734375 131.492188 52.777344 131.660156 52.886719 C 133.257812 53.875 134.9375 54.714844 136.609375 55.566406 C 145.117188 59.898438 153.507812 64.457031 162 68.824219 C 162.171875 68.914062 162.347656 69.070312 162.605469 68.929688 C 162.550781 68.730469 162.417969 68.652344 162.289062 68.574219 Z M 104.554688 63.019531 C 103.371094 65.757812 102.199219 68.503906 101.03125 71.25 C 99.234375 75.460938 97.535156 79.71875 95.691406 83.910156 C 94.269531 87.136719 92.71875 90.308594 91.578125 93.660156 C 91.492188 93.90625 91.308594 94.140625 91.46875 94.582031 C 96.277344 83.769531 100.648438 72.914062 105.226562 62.140625 C 104.832031 62.324219 104.699219 62.6875 104.554688 63.019531 Z M 97.707031 58.753906 C 95.011719 61.308594 92.085938 63.601562 89.40625 66.175781 C 87.484375 68.019531 85.378906 69.65625 83.359375 71.394531 C 80.84375 73.558594 78.5 75.910156 76.109375 78.210938 C 75.140625 79.148438 74.160156 80.078125 73.183594 81.011719 C 73.078125 81.113281 72.917969 81.253906 73.046875 81.386719 C 73.199219 81.550781 73.308594 81.332031 73.402344 81.242188 C 73.960938 80.714844 74.503906 80.171875 75.058594 79.636719 C 79.738281 75.117188 84.742188 70.953125 89.453125 66.464844 C 92.375 63.683594 95.644531 61.296875 98.527344 58.472656 C 98.691406 58.308594 98.925781 58.195312 98.925781 57.847656 C 98.429688 58.074219 98.0625 58.414062 97.707031 58.753906 Z M 129.628906 30.90625 C 130.21875 30.414062 130.796875 29.90625 131.382812 29.410156 C 133.816406 27.347656 135.941406 24.957031 138.347656 22.867188 C 140.570312 20.941406 142.84375 19.074219 145.066406 17.148438 C 148.367188 14.285156 151.5625 11.3125 154.78125 8.359375 C 154.910156 8.242188 155.164062 8.105469 155.003906 7.914062 C 154.816406 7.683594 154.679688 7.972656 154.5625 8.074219 C 152.988281 9.460938 151.402344 10.839844 149.851562 12.253906 C 144.261719 17.335938 138.550781 22.277344 133.03125 27.433594 C 131.894531 28.496094 130.710938 29.503906 129.558594 30.550781 C 129.386719 30.703125 129.140625 30.820312 129.144531 31.117188 C 129.375 31.1875 129.496094 31.019531 129.628906 30.90625 Z M 165.132812 28.484375 C 161.167969 29.648438 157.210938 30.824219 153.152344 31.660156 C 147.605469 32.804688 142.234375 34.625 136.71875 35.898438 C 135.277344 36.234375 133.871094 36.722656 132.449219 37.148438 C 132.332031 37.183594 132.085938 37.160156 132.171875 37.394531 C 132.226562 37.550781 132.402344 37.464844 132.523438 37.4375 C 132.925781 37.339844 133.328125 37.25 133.726562 37.140625 C 137.101562 36.226562 140.460938 35.265625 143.847656 34.398438 C 151.132812 32.535156 158.410156 30.65625 165.667969 28.699219 C 165.835938 28.652344 166.054688 28.667969 166.160156 28.375 C 165.769531 28.265625 165.449219 28.390625 165.132812 28.484375 Z M 142.710938 77.011719 C 141.078125 75.132812 139.453125 73.242188 137.8125 71.371094 C 134.175781 67.226562 130.5625 63.0625 126.820312 59.011719 C 126.65625 58.832031 126.457031 58.46875 126.203125 58.710938 C 125.972656 58.929688 126.335938 59.128906 126.476562 59.300781 C 129.066406 62.417969 131.988281 65.230469 134.589844 68.339844 C 137.042969 71.269531 139.652344 74.066406 142.199219 76.917969 C 142.355469 77.09375 142.480469 77.332031 142.800781 77.351562 C 142.855469 77.1875 142.785156 77.101562 142.710938 77.011719 Z M 111.28125 88.582031 C 111.332031 88.445312 111.355469 88.292969 111.367188 88.144531 C 111.523438 86.097656 111.652344 84.042969 111.828125 81.996094 C 112.03125 79.609375 112.308594 77.230469 112.492188 74.84375 C 112.75 71.457031 112.898438 68.066406 112.988281 64.671875 C 112.996094 64.445312 112.992188 64.21875 112.976562 63.992188 C 112.972656 63.878906 112.929688 63.75 112.796875 63.738281 C 112.621094 63.726562 112.585938 63.867188 112.578125 64.003906 C 112.558594 64.378906 112.546875 64.757812 112.527344 65.132812 C 112.421875 67.132812 112.21875 69.125 112.222656 71.125 C 112.230469 73.984375 112.050781 76.820312 111.683594 79.644531 C 111.320312 82.394531 111.203125 85.167969 111.015625 87.933594 C 111 88.15625 111.019531 88.382812 111.023438 88.578125 C 111.144531 88.699219 111.246094 88.671875 111.28125 88.582031 Z M 157.863281 47.738281 C 157.585938 47.582031 157.277344 47.597656 156.980469 47.578125 C 150.554688 47.210938 144.152344 46.5 137.726562 46.128906 C 136.292969 46.042969 134.867188 45.886719 133.441406 45.726562 C 133.28125 45.710938 133.054688 45.660156 133.03125 45.898438 C 133.007812 46.136719 133.230469 46.132812 133.394531 46.152344 C 133.996094 46.21875 134.597656 46.289062 135.199219 46.34375 C 139.113281 46.679688 143.035156 46.835938 146.949219 47.132812 C 150.035156 47.363281 153.113281 47.773438 156.207031 47.867188 C 156.757812 47.882812 157.308594 47.894531 157.863281 47.90625 C 157.863281 47.851562 157.863281 47.792969 157.863281 47.738281 Z M 132.449219 49.519531 C 132.777344 49.816406 133.210938 49.894531 133.617188 50.011719 C 136.933594 50.9375 140.242188 51.902344 143.589844 52.714844 C 144.289062 52.886719 144.984375 53.066406 145.683594 53.230469 C 145.804688 53.261719 145.972656 53.296875 146.007812 53.117188 C 146.035156 52.96875 145.878906 52.949219 145.78125 52.910156 C 145.691406 52.875 145.597656 52.851562 145.507812 52.828125 C 141.953125 51.914062 138.367188 51.125 134.882812 49.941406 C 134.109375 49.675781 133.292969 49.546875 132.496094 49.355469 C 132.480469 49.410156 132.464844 49.464844 132.449219 49.519531 Z M 128.902344 56.269531 C 129.300781 56.714844 129.839844 56.976562 130.304688 57.332031 C 133.378906 59.707031 136.449219 62.089844 139.527344 64.464844 C 139.738281 64.625 140.058594 64.996094 140.222656 64.773438 C 140.421875 64.496094 139.988281 64.292969 139.765625 64.125 C 136.910156 61.996094 133.96875 59.980469 131.285156 57.621094 C 130.546875 56.972656 129.710938 56.457031 128.855469 55.929688 C 128.761719 56.140625 128.84375 56.207031 128.902344 56.269531 Z M 133.78125 42.164062 C 134.558594 42.1875 135.324219 42.074219 136.089844 41.984375 C 138.632812 41.683594 141.175781 41.382812 143.734375 41.234375 C 144.542969 41.1875 145.34375 41.078125 146.148438 40.984375 C 146.304688 40.964844 146.535156 40.925781 146.480469 40.699219 C 146.4375 40.515625 146.230469 40.570312 146.085938 40.582031 C 145.617188 40.625 145.148438 40.675781 144.683594 40.738281 C 143.878906 40.839844 143.082031 40.976562 142.277344 41.058594 C 139.46875 41.351562 136.636719 41.414062 133.839844 41.800781 C 133.613281 41.832031 133.332031 41.742188 133.1875 42.039062 C 133.371094 42.191406 133.582031 42.160156 133.78125 42.164062 Z M 131.199219 34.234375 C 131.285156 34.210938 131.386719 34.207031 131.460938 34.164062 C 132.96875 33.222656 134.621094 32.535156 136.148438 31.628906 C 137.980469 30.539062 139.976562 29.753906 141.828125 28.695312 C 142.15625 28.507812 142.574219 28.390625 142.757812 27.957031 C 142.425781 27.875 142.210938 28.042969 141.984375 28.160156 C 140.457031 28.945312 138.949219 29.773438 137.445312 30.609375 C 135.910156 31.464844 134.304688 32.183594 132.746094 32.996094 C 132.164062 33.296875 131.578125 33.625 131.125 34.109375 C 131.148438 34.152344 131.171875 34.191406 131.199219 34.234375 Z M 108.34375 63.675781 C 108.207031 64.300781 108.089844 64.929688 107.953125 65.554688 C 107.304688 68.546875 106.648438 71.539062 106.003906 74.535156 C 105.925781 74.882812 105.902344 75.242188 105.867188 75.597656 C 105.859375 75.71875 105.8125 75.894531 106.003906 75.914062 C 106.144531 75.925781 106.160156 75.769531 106.183594 75.667969 C 106.308594 75.152344 106.414062 74.636719 106.535156 74.125 C 106.949219 72.386719 107.042969 70.585938 107.539062 68.863281 C 108 67.253906 108.363281 65.621094 108.648438 63.96875 C 108.691406 63.714844 108.785156 63.457031 108.625 63.175781 C 108.363281 63.289062 108.382812 63.503906 108.34375 63.675781 Z M 116.722656 65.113281 C 117.207031 67.753906 117.675781 70.394531 117.933594 73.066406 C 118.03125 74.085938 118.207031 75.089844 118.425781 76.085938 C 118.46875 76.265625 118.503906 76.550781 118.714844 76.515625 C 118.953125 76.476562 118.847656 76.203125 118.816406 76.03125 C 118.089844 72.316406 117.675781 68.558594 117.050781 64.832031 C 116.972656 64.378906 116.953125 63.910156 116.691406 63.496094 C 116.515625 64.046875 116.625 64.582031 116.722656 65.113281 Z M 123.5 60.953125 C 123.59375 61.136719 123.679688 61.320312 123.78125 61.496094 C 125.765625 64.8125 127.8125 68.09375 129.667969 71.484375 C 129.859375 71.835938 130.082031 72.167969 130.300781 72.5 C 130.382812 72.625 130.507812 72.777344 130.664062 72.667969 C 130.824219 72.554688 130.695312 72.394531 130.640625 72.261719 C 130.609375 72.191406 130.554688 72.132812 130.515625 72.070312 C 128.574219 69.125 126.859375 66.042969 125.066406 63.011719 C 124.632812 62.273438 124.1875 61.527344 123.625 60.871094 C 123.585938 60.898438 123.542969 60.925781 123.5 60.953125 Z M 94.324219 70.566406 C 96.789062 67.203125 99.269531 63.847656 101.519531 60.324219 C 100.808594 60.785156 94.269531 70.117188 94.324219 70.566406 Z M 143.992188 27.214844 C 143.949219 27.246094 143.917969 27.355469 143.9375 27.410156 C 143.976562 27.527344 144.089844 27.511719 144.171875 27.46875 C 144.777344 27.175781 145.425781 26.945312 145.894531 26.414062 C 145.199219 26.542969 144.566406 26.8125 143.992188 27.214844 Z M 149.191406 53.957031 C 149.234375 53.9375 149.296875 53.867188 149.289062 53.851562 C 149.261719 53.789062 149.214844 53.710938 149.160156 53.6875 C 148.644531 53.496094 148.109375 53.371094 147.566406 53.296875 C 147.464844 53.28125 147.371094 53.3125 147.335938 53.410156 C 147.320312 53.449219 147.355469 53.511719 147.363281 53.535156 C 147.511719 53.703125 149.023438 54.042969 149.191406 53.957031 Z M 105.859375 77.574219 C 105.878906 77.460938 105.839844 77.332031 105.714844 77.300781 C 105.574219 77.261719 105.527344 77.394531 105.496094 77.5 C 105.339844 78.035156 105.257812 78.582031 105.367188 79.15625 C 105.65625 78.660156 105.769531 78.121094 105.859375 77.574219 Z M 141.585938 65.679688 C 141.496094 65.617188 141.382812 65.542969 141.285156 65.65625 C 141.214844 65.738281 141.242188 65.839844 141.328125 65.898438 C 141.835938 66.261719 142.28125 66.726562 142.945312 66.835938 C 142.574219 66.34375 142.074219 66.019531 141.585938 65.679688 Z M 132.179688 75.445312 C 132.210938 75.492188 132.320312 75.527344 132.375 75.511719 C 132.492188 75.476562 132.46875 75.359375 132.425781 75.28125 C 132.15625 74.777344 131.941406 74.234375 131.398438 73.921875 C 131.457031 74.539062 131.863281 74.96875 132.179688 75.445312 Z M 119.222656 79.988281 C 119.167969 79.289062 119.273438 78.566406 118.875 77.914062 C 118.871094 78.625 118.847656 79.339844 119.222656 79.988281 Z M 150.34375 40.167969 C 149.6875 40.011719 149.066406 40.144531 148.449219 40.386719 C 149.101562 40.507812 149.742188 40.503906 150.34375 40.167969 Z M 93.449219 71.699219 C 93.0625 72.183594 92.550781 72.589844 92.503906 73.28125 C 92.898438 72.800781 93.425781 72.398438 93.449219 71.699219 Z M 93.449219 71.699219 " fill-opacity="1" fill-rule="nonzero"/></g></g></g></g></svg>